<?xml version="1.0" encoding="UTF-8" standalone="no"?>
<!-- Generator: Adobe Illustrator 19.0.0, SVG Export Plug-In . SVG Version: 6.00 Build 0)  -->

<svg
   xmlns:dc="http://purl.org/dc/elements/1.1/"
   xmlns:cc="http://creativecommons.org/ns#"
   xmlns:rdf="http://www.w3.org/1999/02/22-rdf-syntax-ns#"
   xmlns:svg="http://www.w3.org/2000/svg"
   xmlns="http://www.w3.org/2000/svg"
   xmlns:sodipodi="http://sodipodi.sourceforge.net/DTD/sodipodi-0.dtd"
   xmlns:inkscape="http://www.inkscape.org/namespaces/inkscape"
   version="1.1"
   id="Capa_1"
   x="0px"
   y="0px"
   viewBox="0 0 512 512"
   style="enable-background:new 0 0 512 512;"
   xml:space="preserve"
   sodipodi:docname="search.svg"
   inkscape:version="0.92.3 (2405546, 2018-03-11)"><metadata
   id="metadata43"><rdf:RDF><cc:Work
       rdf:about=""><dc:format>image/svg+xml</dc:format><dc:type
         rdf:resource="http://purl.org/dc/dcmitype/StillImage" /></cc:Work></rdf:RDF></metadata><defs
   id="defs41" /><sodipodi:namedview
   pagecolor="#ffffff"
   bordercolor="#666666"
   borderopacity="1"
   objecttolerance="10"
   gridtolerance="10"
   guidetolerance="10"
   inkscape:pageopacity="0"
   inkscape:pageshadow="2"
   inkscape:window-width="1366"
   inkscape:window-height="680"
   id="namedview39"
   showgrid="false"
   inkscape:zoom="0.4609375"
   inkscape:cx="256"
   inkscape:cy="256"
   inkscape:window-x="0"
   inkscape:window-y="28"
   inkscape:window-maximized="1"
   inkscape:current-layer="Capa_1" />
<g
   id="g6"
   style="fill:#b9806c;fill-opacity:1">
	<g
   id="g4"
   style="fill:#b9806c;fill-opacity:1">
		<path
   d="M506.144,451.421L351.374,296.652c-3.751-3.751-8.837-5.858-14.142-5.858c-4.854,0-9.511,1.781-13.144,4.954    l-21.837-21.837c52.173-65.998,48.375-162.673-13.313-224.362c0,0,0,0-0.001,0c-65.983-65.983-173.346-65.985-239.332,0    c-66.134,66.135-66.144,173.187,0,239.332c60.814,60.813,157.546,65.972,224.351,13.301l21.851,21.851    c-6.872,7.855-6.586,19.795,0.903,27.283l154.77,154.77c7.805,7.805,20.474,7.808,28.283,0l13.188-13.188    c0.001-0.001,0.002-0.002,0.002-0.002s0.001-0.002,0.002-0.003l13.188-13.188C513.953,471.894,513.953,459.232,506.144,451.421z     M260.655,260.597c-50.505,50.505-132.254,50.511-182.766,0c-50.504-50.502-50.513-132.255,0-182.767    c50.387-50.387,132.376-50.39,182.766,0C311.159,128.333,311.169,210.086,260.655,260.597z"
   id="path2"
   style="fill:#b9806c;fill-opacity:1" />
	</g>
</g>
<g
   id="g8">
</g>
<g
   id="g10">
</g>
<g
   id="g12">
</g>
<g
   id="g14">
</g>
<g
   id="g16">
</g>
<g
   id="g18">
</g>
<g
   id="g20">
</g>
<g
   id="g22">
</g>
<g
   id="g24">
</g>
<g
   id="g26">
</g>
<g
   id="g28">
</g>
<g
   id="g30">
</g>
<g
   id="g32">
</g>
<g
   id="g34">
</g>
<g
   id="g36">
</g>
</svg>